<?xml version="1.0" encoding="UTF-8"?>
<!--
  - CoolerControl - monitor and control your cooling and other devices
  - Copyright (c) 2022  Guy Boldon
  - |
  - This program is free software: you can redistribute it and/or modify
  - it under the terms of the GNU General Public License as published by
  - the Free Software Foundation, either version 3 of the License, or
  - (at your option) any later version.
  - |
  - This program is distributed in the hope that it will be useful,
  - but WITHOUT ANY WARRANTY; without even the implied warranty of
  - MERCHANTABILITY or FITNESS FOR A PARTICULAR PURPOSE.  See the
  - GNU General Public License for more details.
  - |
  - You should have received a copy of the GNU General Public License
  - along with this program.  If not, see <https://www.gnu.org/licenses/>.
  -->

<svg xmlns="http://www.w3.org/2000/svg" xmlns:xlink="http://www.w3.org/1999/xlink" viewBox="0 0 24 24" width="24px" height="24px">
<g id="surface459448">
<path style=" stroke:none;fill-rule:nonzero;fill:rgb(100%,100%,100%);fill-opacity:1;" d="M 0 15 L 0 8.625 L 1.5 8.625 L 3.75 11.625 L 3.75 8.625 L 5.625 8.625 L 5.625 15 L 3.75 15 L 1.5 11.625 L 1.5 15 Z M 0 15 "/>
<path style=" stroke:none;fill-rule:nonzero;fill:rgb(100%,100%,100%);fill-opacity:1;" d="M 6.75 8.625 L 11.625 8.625 L 9.375 13.5 L 11.625 13.5 L 11.625 15 L 6.375 15 L 8.625 10.125 L 6.75 10.125 Z M 6.75 8.625 "/>
<path style=" stroke:none;fill-rule:nonzero;fill:rgb(100%,100%,100%);fill-opacity:1;" d="M 12.375 8.625 L 14.25 8.625 L 15.375 10.5 L 16.5 8.625 L 18.375 8.625 L 16.5 11.625 L 18.375 15 L 16.5 15 L 15.375 13.125 L 14.25 15 L 12.375 15 L 14.25 11.625 Z M 12.375 8.625 "/>
<path style=" stroke:none;fill-rule:nonzero;fill:rgb(100%,100%,100%);fill-opacity:1;" d="M 24 8.625 L 19.125 8.625 L 19.125 10.5 L 20.625 10.5 L 20.625 15 L 22.5 15 L 22.5 10.5 L 24 10.5 Z M 24 8.625 "/>
</g>
</svg>
