<?xml version="1.0" encoding="UTF-8"?>
<svg xmlns="http://www.w3.org/2000/svg" xmlns:xlink="http://www.w3.org/1999/xlink" viewBox="0 0 24 24" width="24px" height="24px">
<g id="surface456858">
<path style=" stroke:none;fill-rule:nonzero;fill:rgb(100%,100%,100%);fill-opacity:1;" d="M 12.5 2.003906 C 12.5 2.003906 14.800781 5.671875 14.503906 7.011719 C 14.503906 7.011719 18.332031 8.273438 18.808594 10.5 C 18.808594 10.5 20.71875 7.160156 12.5 2.003906 Z M 11.292969 7 C 11.699219 7.863281 11.75 9.046875 12 10 L 9.5 8.734375 C 9.726562 7.308594 8.5 5 8.5 5 Z M 6.773438 9 C 7.046875 9.679688 7.339844 10.753906 7.5 11.5 L 5.5 10.5 C 5.28125 9 4 7.5 4 7.5 Z M 6.773438 9 "/>
<path style=" stroke:none;fill-rule:nonzero;fill:rgb(100%,100%,100%);fill-opacity:1;" d="M 11.5 5.5 C 11.5 5.5 21.265625 12.65625 21.902344 15.242188 C 22.375 17.191406 20.992188 19.003906 20.992188 19.003906 C 20.992188 19.003906 20.667969 17.445312 17 17.5 C 14.269531 17.539062 9.683594 18.511719 2 21.5 C 3.835938 19.4375 4.773438 16.832031 4.5 14 C 4.386719 12.84375 4 11.496094 3.5 10.5 L 8 13 C 8 13 7.976562 13.433594 8 13.5 C 8 15.5 8.027344 16.757812 7.621094 18.324219 C 8.503906 16.464844 8.914062 14.378906 8.710938 12.203125 C 8.59375 10.886719 8.023438 9.65625 7.5 8.5 L 12.5 11.546875 C 12.523438 11.703125 12.523438 11.839844 12.546875 12 C 12.546875 14 12.359375 15.761719 11.859375 17.460938 C 12.925781 15.46875 13.726562 12.902344 13.5 10.5 C 13.339844 8.753906 12.316406 6.929688 11.5 5.5 Z M 11.5 5.5 "/>
</g>
</svg>
