<svg xmlns="http://www.w3.org/2000/svg"  viewBox="0 0 64 64" width="100px" height="100px"><linearGradient id="IaTgA~1Np_BMY0IkWaeQ3a" x1="32" x2="32" y1="3.25" y2="61.803" gradientUnits="userSpaceOnUse" spreadMethod="reflect"><stop offset="0" stop-color="#1a6dff"/><stop offset="1" stop-color="#c822ff"/></linearGradient><path fill="url(#IaTgA~1Np_BMY0IkWaeQ3a)" d="M32,43c6.065,0,11-4.935,11-11s-4.935-11-11-11s-11,4.935-11,11S25.935,43,32,43z M32,23 c4.963,0,9,4.037,9,9s-4.037,9-9,9s-9-4.037-9-9S27.037,23,32,23z"/><linearGradient id="IaTgA~1Np_BMY0IkWaeQ3b" x1="22.5" x2="22.5" y1="3.25" y2="61.803" gradientUnits="userSpaceOnUse" spreadMethod="reflect"><stop offset="0" stop-color="#1a6dff"/><stop offset="1" stop-color="#c822ff"/></linearGradient><path fill="url(#IaTgA~1Np_BMY0IkWaeQ3b)" d="M11.811,37.719C14.237,36.95,16,34.677,16,32c0-2.679-1.765-4.952-4.192-5.72 C14.261,17.56,21.939,11.464,31,11.042v3.001c0,0.702,0.367,1.333,0.983,1.688c0.31,0.179,0.656,0.268,1.003,0.268 c0.35,0,0.699-0.09,1.01-0.271l5.548-3.223C40.455,11.974,41,11.038,41,10s-0.545-1.974-1.457-2.504l-5.547-3.223 c-0.619-0.362-1.392-0.362-2.013-0.004C31.367,4.624,31,5.255,31,5.957v3.085C20.94,9.47,12.419,16.282,9.81,26.01 C6.589,26.111,4,28.756,4,32c0,3.245,2.591,5.89,5.812,5.99c1.394,5.176,4.539,9.713,8.958,12.825l1.152-1.635 C15.956,46.389,13.117,42.341,11.811,37.719z M38.538,9.225C38.955,9.467,39,9.848,39,10s-0.045,0.533-0.461,0.775L33,13.985 l-0.008-7.983L38.538,9.225z M6,32c0-2.206,1.794-4,4-4s4,1.794,4,4s-1.794,4-4,4S6,34.206,6,32z"/><linearGradient id="IaTgA~1Np_BMY0IkWaeQ3c" x1="41.5" x2="41.5" y1="3.25" y2="61.803" gradientUnits="userSpaceOnUse" spreadMethod="reflect"><stop offset="0" stop-color="#1a6dff"/><stop offset="1" stop-color="#c822ff"/></linearGradient><path fill="url(#IaTgA~1Np_BMY0IkWaeQ3c)" d="M60,32c0-3.245-2.591-5.89-5.812-5.99c-1.394-5.176-4.539-9.713-8.958-12.825l-1.152,1.635 c3.966,2.792,6.805,6.84,8.111,11.461C49.763,27.05,48,29.323,48,32c0,2.679,1.765,4.952,4.193,5.721 C49.74,46.44,42.061,52.536,33,52.958v-3.001c0-0.702-0.367-1.333-0.983-1.688c-0.623-0.359-1.395-0.358-2.013,0.004l-5.548,3.223 C23.545,52.026,23,52.962,23,54s0.545,1.974,1.457,2.504l5.547,3.223c0.311,0.182,0.66,0.271,1.01,0.271 c0.347,0,0.693-0.089,1.003-0.268C32.633,59.376,33,58.745,33,58.043v-3.085c10.059-0.428,18.582-7.24,21.191-16.967 C57.411,37.888,60,35.244,60,32z M31,57.993l-5.538-3.218C25.045,54.533,25,54.152,25,54s0.045-0.533,0.461-0.775L31,49.957V57.993z M54,36c-2.206,0-4-1.794-4-4s1.794-4,4-4s4,1.794,4,4S56.206,36,54,36z"/><linearGradient id="IaTgA~1Np_BMY0IkWaeQ3d" x1="32" x2="32" y1="27.5" y2="36.538" gradientUnits="userSpaceOnUse" spreadMethod="reflect"><stop offset="0" stop-color="#6dc7ff"/><stop offset="1" stop-color="#e6abff"/></linearGradient><path fill="url(#IaTgA~1Np_BMY0IkWaeQ3d)" d="M32 28A4 4 0 1 0 32 36A4 4 0 1 0 32 28Z"/></svg>