<svg xmlns="http://www.w3.org/2000/svg" width="256" height="256" viewBox="72 72 256 256"><g style="stroke-width:1.00015756;stroke-dasharray:none" transform="translate(73 77.38)scale(2.91954)"><rect width="87" height="84" fill="none" rx="0" ry="10" style="stroke-width:1.00016;stroke-dasharray:none;fill:#000;fill-opacity:0"/><path fill="#48466d" d="M8.334 20.197c0-6.12 5.022-11.144 11.143-11.144 1.491 0 2.747 1.256 2.747 2.747s-1.256 2.746-2.747 2.746a5.627 5.627 0 0 0-5.65 5.65c0 3.14 2.51 5.651 5.65 5.651a5.625 5.625 0 0 0 5.65-5.65c0-1.491 1.256-2.747 2.746-2.747s2.748 1.256 2.748 2.747c0 5.179-3.611 9.574-8.397 10.83v40.965c0 1.489-1.256 2.744-2.747 2.744s-2.746-1.255-2.746-2.744V31.026c-4.787-1.255-8.397-5.65-8.397-10.83M40.508 11.8v40.966a11.19 11.19 0 0 0-8.397 10.83c0 6.12 5.023 11.142 11.144 11.142s11.143-5.022 11.143-11.144c0-1.491-1.255-2.745-2.746-2.745s-2.746 1.254-2.746 2.745c0 3.14-2.511 5.65-5.651 5.65a5.627 5.627 0 0 1-5.65-5.65c0-3.14 2.51-5.65 5.65-5.65 1.491 0 2.747-1.256 2.747-2.746v-43.4c0-1.491-1.256-2.746-2.747-2.746a2.73 2.73 0 0 0-2.746 2.746m26.602 2.747c1.491 0 2.747-1.256 2.747-2.745s-1.255-2.747-2.746-2.747c-6.121 0-11.144 5.022-11.144 11.144 0 5.179 3.61 9.574 8.396 10.83v40.965c0 1.489 1.256 2.744 2.747 2.744s2.747-1.255 2.747-2.744V31.026c4.865-1.255 8.474-5.65 8.474-10.83 0-1.49-1.253-2.746-2.744-2.746s-2.749 1.256-2.749 2.747c0 3.139-2.51 5.65-5.649 5.65a5.63 5.63 0 0 1-5.65-5.65c0-3.14 2.511-5.651 5.571-5.651" style="color:#4d4d4d;fill:currentColor;stroke-width:1.50024;stroke-dasharray:none;fill-opacity:1"/></g></svg>