<svg xmlns="http://www.w3.org/2000/svg" width="256" height="256" viewBox="0 0 256 256"><defs><linearGradient id="a" x1="86" x2="86" y1="8.734" y2="166.096" gradientTransform="scale(1.48837)" gradientUnits="userSpaceOnUse"><stop offset="0" style="stop-color:#00c6ff;stop-opacity:1"/><stop offset="1" style="stop-color:#0072ff;stop-opacity:1"/></linearGradient><linearGradient id="b" x1="60.469" x2="60.469" y1="8.734" y2="166.096" gradientTransform="scale(1.48837)" gradientUnits="userSpaceOnUse"><stop offset="0" style="stop-color:#00c6ff;stop-opacity:1"/><stop offset="1" style="stop-color:#0072ff;stop-opacity:1"/></linearGradient><linearGradient id="c" x1="111.531" x2="111.531" y1="8.734" y2="166.096" gradientTransform="scale(1.48837)" gradientUnits="userSpaceOnUse"><stop offset="0" style="stop-color:#00c6ff;stop-opacity:1"/><stop offset="1" style="stop-color:#0072ff;stop-opacity:1"/></linearGradient><linearGradient id="d" x1="86" x2="86" y1="73.906" y2="98.196" gradientTransform="scale(1.48837)" gradientUnits="userSpaceOnUse"><stop offset="0" style="stop-color:#70dfff;stop-opacity:1"/><stop offset="1" style="stop-color:#70afff;stop-opacity:1"/></linearGradient></defs><path d="M128 172c24.262 0 44-19.738 44-44s-19.738-44-44-44-44 19.738-44 44 19.738 44 44 44m0-80c19.852 0 36 16.148 36 36s-16.148 36-36 36-36-16.148-36-36 16.148-36 36-36m0 0" style="stroke:none;fill-rule:nonzero;fill:url(#a)"/><path d="M47.242 150.875C56.95 147.801 64 138.707 64 128c0-10.715-7.059-19.809-16.77-22.879C57.043 70.238 87.758 45.855 124 44.168v12.004c0 2.808 1.469 5.332 3.934 6.754a8 8 0 0 0 4.011 1.07c1.399 0 2.793-.36 4.04-1.086l22.19-12.89C161.82 47.895 164 44.152 164 40s-2.18-7.895-5.828-10.016l-22.188-12.89a8.04 8.04 0 0 0-8.05-.02C125.469 18.496 124 21.02 124 23.828v12.34c-40.238 1.71-74.324 28.96-84.762 67.871C26.355 104.445 16 115.023 16 128c0 12.98 10.363 23.559 23.246 23.96 5.578 20.704 18.156 38.852 35.832 51.302l4.61-6.543c-15.864-11.164-27.22-27.356-32.446-45.844m106.91-113.977C155.82 37.868 156 39.391 156 40c0 .61-.18 2.133-1.844 3.102L132 55.942l-.031-31.934ZM24 128c0-8.824 7.176-16 16-16s16 7.176 16 16-7.176 16-16 16-16-7.176-16-16m0 0" style="stroke:none;fill-rule:nonzero;fill:url(#b)"/><path d="M240 128c0-12.98-10.363-23.559-23.246-23.96-5.578-20.704-18.156-38.853-35.832-51.302l-4.61 6.543c15.864 11.168 27.22 27.36 32.446 45.844C199.05 108.199 192 117.293 192 128c0 10.715 7.059 19.809 16.773 22.883-9.812 34.879-40.53 59.262-76.773 60.949v-12.004c0-2.808-1.469-5.332-3.934-6.754a8.04 8.04 0 0 0-8.05.02l-22.192 12.89C94.18 208.105 92 211.848 92 216s2.18 7.895 5.828 10.016l22.188 12.89a7.97 7.97 0 0 0 4.039 1.086c1.39 0 2.773-.355 4.011-1.07 2.465-1.418 3.934-3.942 3.934-6.75v-12.34c40.234-1.71 74.328-28.96 84.766-67.867C229.645 151.55 240 140.977 240 128M124 231.973l-22.152-12.871c-1.668-.97-1.848-2.493-1.848-3.102 0-.61.18-2.133 1.844-3.102L124 199.828ZM216 144c-8.824 0-16-7.176-16-16s7.176-16 16-16 16 7.176 16 16-7.176 16-16 16m0 0" style="stroke:none;fill-rule:nonzero;fill:url(#c)"/><path d="M128 112c-8.836 0-16 7.164-16 16s7.164 16 16 16 16-7.164 16-16-7.164-16-16-16m0 0" style="stroke:none;fill-rule:nonzero;fill:url(#d)"/></svg>