<!--
  - CoolerControl - monitor and control your cooling and other devices
  - Copyright (c) 2021-2024  Guy Boldon and contributors
  -
  - This program is free software: you can redistribute it and/or modify
  - it under the terms of the GNU General Public License as published by
  - the Free Software Foundation, either version 3 of the License, or
  - (at your option) any later version.
  -
  - This program is distributed in the hope that it will be useful,
  - but WITHOUT ANY WARRANTY; without even the implied warranty of
  - MERCHANTABILITY or FITNESS FOR A PARTICULAR PURPOSE.  See the
  - GNU General Public License for more details.
  -
  - You should have received a copy of the GNU General Public License
  - along with this program.  If not, see <https://www.gnu.org/licenses/>.
  -->

<svg xmlns="http://www.w3.org/2000/svg" width="24" height="24" viewBox="0 0 24 24"><defs><linearGradient id="a" x1="86" x2="86" y1="8.734" y2="166.096" gradientTransform="scale(.13953)" gradientUnits="userSpaceOnUse"><stop offset="0" style="stop-color:#fff;stop-opacity:1"/><stop offset="1" style="stop-color:#fff;stop-opacity:1"/></linearGradient><linearGradient id="b" x1="60.469" x2="60.469" y1="8.734" y2="166.096" gradientTransform="scale(.13953)" gradientUnits="userSpaceOnUse"><stop offset="0" style="stop-color:#fff;stop-opacity:1"/><stop offset="1" style="stop-color:#fff;stop-opacity:1"/></linearGradient><linearGradient id="c" x1="111.531" x2="111.531" y1="8.734" y2="166.096" gradientTransform="scale(.13953)" gradientUnits="userSpaceOnUse"><stop offset="0" style="stop-color:#fff;stop-opacity:1"/><stop offset="1" style="stop-color:#fff;stop-opacity:1"/></linearGradient><linearGradient id="d" x1="86" x2="86" y1="73.906" y2="98.196" gradientTransform="scale(.13953)" gradientUnits="userSpaceOnUse"><stop offset="0" style="stop-color:#fff;stop-opacity:1"/><stop offset="1" style="stop-color:#fff;stop-opacity:1"/></linearGradient></defs><path d="M12 16.125A4.13 4.13 0 0 0 16.125 12 4.13 4.13 0 0 0 12 7.875 4.13 4.13 0 0 0 7.875 12 4.13 4.13 0 0 0 12 16.125m0-7.5A3.38 3.38 0 0 1 15.375 12 3.38 3.38 0 0 1 12 15.375 3.38 3.38 0 0 1 8.625 12 3.38 3.38 0 0 1 12 8.625m0 0" style="stroke:none;fill-rule:nonzero;fill:url(#a)"/><path d="M4.43 14.145C5.34 13.855 6 13.004 6 12s-.66-1.855-1.57-2.145a7.82 7.82 0 0 1 7.195-5.714v1.125c0 .265.137.5.367.632a.77.77 0 0 0 .758 0l2.078-1.21c.344-.196.547-.547.547-.938s-.203-.742-.547-.937L12.75 1.602a.75.75 0 0 0-.758 0 .72.72 0 0 0-.367.632v1.157A8.56 8.56 0 0 0 3.68 9.754 2.254 2.254 0 0 0 1.5 12c0 1.219.973 2.207 2.18 2.246a8.62 8.62 0 0 0 3.36 4.809l.433-.614a7.84 7.84 0 0 1-3.043-4.296M14.453 3.46c.156.09.172.23.172.289s-.016.2-.172.29l-2.078 1.206-.004-2.996ZM2.25 12a1.5 1.5 0 1 1 3 0 1.5 1.5 0 0 1-3 0m0 0" style="stroke:none;fill-rule:nonzero;fill:url(#b)"/><path d="M22.5 12a2.25 2.25 0 0 0-2.18-2.246 8.62 8.62 0 0 0-3.36-4.809l-.433.614a7.84 7.84 0 0 1 3.043 4.296C18.66 10.145 18 10.996 18 12s.66 1.855 1.574 2.145a7.83 7.83 0 0 1-7.199 5.714v-1.125a.72.72 0 0 0-.367-.632.75.75 0 0 0-.758 0l-2.078 1.21a1.07 1.07 0 0 0-.547.938c0 .39.203.742.547.938l2.078 1.21a.77.77 0 0 0 .758 0 .72.72 0 0 0 .367-.632v-1.157a8.56 8.56 0 0 0 7.945-6.363A2.254 2.254 0 0 0 22.5 12m-10.875 9.746L9.547 20.54a.33.33 0 0 1-.172-.289c0-.059.016-.2.172-.29l2.078-1.226ZM20.25 13.5a1.5 1.5 0 1 1 0-3 1.5 1.5 0 0 1 0 3m0 0" style="stroke:none;fill-rule:nonzero;fill:url(#c)"/><path d="M12 10.5a1.5 1.5 0 1 0 0 3 1.5 1.5 0 0 0 0-3m0 0" style="stroke:none;fill-rule:nonzero;fill:url(#d)"/></svg>
