<?xml version="1.0" encoding="utf-8"?>
<svg version="1.1" width="640px" height="617px" viewBox="71.2 72 640 617" xmlns="http://www.w3.org/2000/svg">
  <g transform="scale(7.311129163281884) translate(10, 10)">
    <defs id="SvgjsDefs1106">
      <linearGradient id="SvgjsLinearGradient1113">
        <stop id="SvgjsStop1114" stop-color="#6d7cff" offset="0"/>
        <stop id="SvgjsStop1115" stop-color="#ff51ff" offset="1"/>
      </linearGradient>
    </defs>
    <g id="SvgjsG1107" featurekey="symbolGroupContainer" transform="matrix(1,0,0,1,0,0)" fill="url(#SvgjsLinearGradient1113)">
      <rect xmlns="http://www.w3.org/2000/svg" width="87" height="84" rx="10" ry="10"/>
    </g>
    <g id="SvgjsG1108" featurekey="S6ay6y-0" transform="matrix(0.5231689267180664,0,0,0.5231689267180664,17.174887745829164,15.71001490069841)" fill="#48466d">
      <path xmlns="http://www.w3.org/2000/svg" d="M5.4,22.4c0-7.8,6.4-14.2,14.2-14.2c1.9,0,3.5,1.6,3.5,3.5s-1.6,3.5-3.5,3.5c-4,0-7.2,3.2-7.2,7.2s3.2,7.2,7.2,7.2  c4,0,7.2-3.2,7.2-7.2c0-1.9,1.6-3.5,3.5-3.5s3.5,1.6,3.5,3.5c0,6.6-4.6,12.2-10.7,13.8v52.2c0,1.9-1.6,3.5-3.5,3.5s-3.5-1.6-3.5-3.5  V36.2C10,34.6,5.4,29,5.4,22.4z M46.4,11.7v52.2c-6.2,1.6-10.7,7.2-10.7,13.8c0,7.8,6.4,14.2,14.2,14.2s14.2-6.4,14.2-14.2  c0-1.9-1.6-3.5-3.5-3.5s-3.5,1.6-3.5,3.5c0,4-3.2,7.2-7.2,7.2s-7.2-3.2-7.2-7.2s3.2-7.2,7.2-7.2c1.9,0,3.5-1.6,3.5-3.5V11.7  c0-1.9-1.6-3.5-3.5-3.5S46.4,9.7,46.4,11.7z M80.3,15.2c1.9,0,3.5-1.6,3.5-3.5s-1.6-3.5-3.5-3.5c-7.8,0-14.2,6.4-14.2,14.2  c0,6.6,4.6,12.2,10.7,13.8v52.2c0,1.9,1.6,3.5,3.5,3.5s3.5-1.6,3.5-3.5V36.2C90,34.6,94.6,29,94.6,22.4c0-1.9-1.6-3.5-3.5-3.5  s-3.5,1.6-3.5,3.5c0,4-3.2,7.2-7.2,7.2s-7.2-3.2-7.2-7.2S76.4,15.2,80.3,15.2z"/>
    </g>
  </g>
</svg>