<svg xmlns="http://www.w3.org/2000/svg" width="182" height="56"><defs><linearGradient id="A" x1=".5" x2=".5" y1="-.029" y2="1.029"><stop offset="0" stop-color="#fff"/><stop offset="1" stop-color="#fff" stop-opacity="0"/></linearGradient><linearGradient id="B" x1=".5" x2=".5" y1="-.043" y2="1.043"><stop offset="0" stop-color="#fff"/><stop offset="1" stop-color="#fff" stop-opacity="0"/></linearGradient><linearGradient id="C" x1=".5" x2=".5" y1="-.014" y2="1.014"><stop offset="0" stop-color="#fff"/><stop offset="1" stop-color="#fff" stop-opacity="0"/></linearGradient><linearGradient id="F" x1=".245" x2=".245" y1="1.016" y2="-.013"><stop offset="0" stop-color="#2e4a5a"/><stop offset="1" stop-color="#6e8796"/></linearGradient><linearGradient id="I" x1=".538" x2=".538" y1="1.004" y2="0"><stop offset="0" stop-color="#181818" stop-opacity="0"/><stop offset=".5" stop-color="#181818"/><stop offset="1" stop-color="#181818" stop-opacity="0"/></linearGradient><radialGradient id="D" cx="48.424" cy="-48.027" r="38.213" fx="48.424" fy="-48.027" gradientTransform="matrix(0 1.0262 -1.65611 .00094 -27.275 -9.113)" gradientUnits="userSpaceOnUse"><stop offset="0" stop-color="#fafafa"/><stop offset="1" stop-color="#e6e6e6"/></radialGradient><radialGradient id="E" cx="9.333" cy="8.45" r="20" fx="9.333" fy="8.45" gradientTransform="matrix(0 2.04788 -2.74105 0 75.984 27.382)" gradientUnits="userSpaceOnUse"><stop offset="0" stop-color="#a3c0d0"/><stop offset="1" stop-color="#427da1"/></radialGradient><radialGradient id="G" cx="4.993" cy="43.5" r="2.5" fx="4.993" fy="43.5" gradientTransform="matrix(2.00378 0 0 1.4 52.88 45.985)" gradientUnits="userSpaceOnUse"><stop offset="0" stop-color="#181818"/><stop offset="1" stop-color="#181818" stop-opacity="0"/></radialGradient><radialGradient id="H" cx="4.993" cy="43.5" r="2.5" fx="4.993" fy="43.5" gradientTransform="matrix(-2.00378 0 0 -1.4 194.112 80.15)" gradientUnits="userSpaceOnUse"><stop offset="0" stop-color="#181818"/><stop offset="1" stop-color="#181818" stop-opacity="0"/></radialGradient><style>@font-face{font-family:&quot;Montserrat&quot;;src:url(\ \))}</style></defs><path fill="#252525" d="M0 0h182v56H0z"/><g transform="translate(-19.721 -24.042)scale(.84343)"><g opacity=".4"><path fill="url(#G)" d="M65.113 103.385h5v7h-5z" transform="matrix(1.1579 0 0 .57143 -3.79 19.143)"/><path fill="url(#H)" d="M-37.113-29.42h5v7h-5z" transform="matrix(-1.1579 0 0 -.57143 -3.79 65.409)"/><path fill="url(#I)" d="M37.113 103.385h28v7h-28z" transform="matrix(1.1579 0 0 .57143 -3.79 19.143)"/></g><rect width="39" height="39" x="35.894" y="41.687" fill="url(#E)" stroke="url(#F)" stroke-linejoin="round" rx="2.232"/><path d="M52.394 43.188a2.017 2.017 0 0 0-2.031 2.031v3.97h-1.156a2.017 2.017 0 0 0-1.5 3.375l5.063 5.75c-.063.11-.18.246-.22.344-.196.478-.25.837-.25 1.22V60l-.094-.094a3.1 3.1 0 0 0-1.094-.72c-.247-.097-.533-.177-.97-.156s-1.054.2-1.47.625l-1.53 1.53c-.415.415-.604 1.033-.625 1.47s.06.722.156.97c.194.494.44.816.72 1.094l.094.094h-.125c-.382 0-.74.054-1.22.25-.24.098-.538.215-.844.53s-.625.915-.625 1.53v2.188c0 .616.32 1.215.625 1.53s.605.433.844.53c.478.196.837.25 1.22.25h.125l-.094.094c-.278.278-.525.6-.72 1.094-.097.247-.177.533-.156.97s.2 1.054.625 1.47l1.53 1.53c.415.415 1.033.604 1.47.625s.722-.06.97-.156c.494-.194.816-.44 1.094-.72l.094-.094v.125c0 .382.054.74.25 1.22.098.24.215.538.53.844s.915.625 1.53.625h2.19c.616 0 1.215-.32 1.53-.625s.433-.605.53-.844c.196-.478.25-.837.25-1.22v-.125l.094.094c.278.278.6.525 1.094.72.247.097.533.177.97.156s1.054-.2 1.47-.625l1.53-1.53c.415-.415.604-1.033.625-1.47s-.06-.722-.156-.97a3 3 0 0 0-.72-1.094l-.094-.094h.125c.382 0 .74-.054 1.22-.25.24-.098.538-.215.844-.53s.625-.915.625-1.53v-2.187c0-.616-.32-1.215-.625-1.53s-.605-.433-.844-.53a3 3 0 0 0-1.22-.25h-.125l.094-.094c.278-.278.525-.6.72-1.094.097-.247.177-.533.156-.97s-.2-1.054-.625-1.47l-1.53-1.53c-.415-.415-1.033-.604-1.47-.625s-.722.06-.97.156c-.494.194-.816.44-1.094.72l-.094.094v-.125c0-.382-.054-.74-.25-1.22-.09-.222-.228-.5-.5-.78l4.72-5.312a2.017 2.017 0 0 0-1.5-3.375h-1.156v-3.97a2.017 2.017 0 0 0-2.031-2.031zm3.313 24.28c.427 0 .75.323.75.75s-.323.75-.75.75-.75-.323-.75-.75.323-.75.75-.75" opacity=".05"/><path d="M52.3 44.25a.964.964 0 0 0-.875.969v5.03h-2.22a.964.964 0 0 0-.719 1.594l5.78 6.53c-.16.062-.342.095-.437.188-.17.163-.253.323-.312.47a2.2 2.2 0 0 0-.156.844v1.656c-.25.1-.483.197-.72.313l-1.187-1.187a2 2 0 0 0-.719-.469 1.3 1.3 0 0 0-.562-.094c-.233.01-.536.098-.75.313l-1.53 1.53c-.214.214-.3.517-.312.75a1.3 1.3 0 0 0 .094.563 2 2 0 0 0 .469.719l1.188 1.187-.312.72h-1.656a2.2 2.2 0 0 0-.844.156c-.145.06-.305.143-.47.313s-.312.464-.312.78v2.188c0 .317.15.612.313.78s.323.253.47.313a2.2 2.2 0 0 0 .844.156h1.656c.1.25.197.483.313.72l-1.187 1.188a2 2 0 0 0-.469.719 1.3 1.3 0 0 0-.094.563c.01.233.098.536.313.75l1.53 1.53c.214.214.517.3.75.313a1.3 1.3 0 0 0 .563-.094 2 2 0 0 0 .719-.469l1.188-1.187.72.313v1.656a2.2 2.2 0 0 0 .156.844c.06.145.143.305.313.47s.464.313.78.313H56.8a1.18 1.18 0 0 0 1.093-.782 2.2 2.2 0 0 0 .156-.844v-1.656c.25-.1.483-.197.72-.312l1.188 1.188a2 2 0 0 0 .719.469 1.3 1.3 0 0 0 .563.094c.233-.01.536-.098.75-.312l1.53-1.53c.214-.214.3-.517.313-.75a1.3 1.3 0 0 0-.094-.562 2 2 0 0 0-.469-.719l-1.187-1.187.313-.72h1.656a2.2 2.2 0 0 0 .844-.156c.145-.06.305-.143.47-.312s.313-.464.313-.78v-2.187a1.18 1.18 0 0 0-.782-1.092 2.2 2.2 0 0 0-.844-.156h-1.656c-.1-.25-.197-.483-.312-.72l1.188-1.187a2 2 0 0 0 .469-.719 1.3 1.3 0 0 0 .094-.562 1.16 1.16 0 0 0-.312-.75l-1.53-1.53c-.214-.214-.517-.3-.75-.312a1.3 1.3 0 0 0-.562.094 2 2 0 0 0-.719.469l-1.187 1.188-.72-.312v-1.656a2.2 2.2 0 0 0-.156-.844c-.06-.145-.143-.305-.312-.47s-.464-.312-.78-.312h-.156l5.656-6.406a.964.964 0 0 0-.719-1.594h-2.22v-5.03a.964.964 0 0 0-.969-.969h-6a1 1 0 0 0-.094 0zm3.406 22.156a1.81 1.81 0 1 1 0 3.625 1.81 1.81 0 1 1 0-3.625" opacity=".05"/><path fill="url(#D)" d="M52.394 45.22v6h-3.187l6.188 7 6.188-7h-3.187v-6h-6zm2.22 14c-.173 0-.28.295-.28.656v2.28a6.2 6.2 0 0 0-1.937.813l-1.625-1.625c-.255-.255-.534-.372-.656-.25l-1.53 1.53c-.122.122-.005.4.25.656l1.625 1.625a6.2 6.2 0 0 0-.812 1.938h-2.28c-.36 0-.656.108-.656.28v2.188c0 .173.295.28.656.28h2.28c.158.696.442 1.352.813 1.938l-1.625 1.625c-.255.255-.372.534-.25.656l1.53 1.53c.122.122.4.005.656-.25l1.625-1.625c.586.37 1.24.654 1.938.813v2.28c0 .36.108.656.28.656H56.8c.173 0 .28-.295.28-.656v-2.28a6.3 6.3 0 0 0 1.938-.812l1.625 1.625c.255.255.534.372.656.25l1.53-1.53c.122-.122.005-.4-.25-.656l-1.625-1.625c.37-.586.654-1.24.813-1.937h2.28c.36 0 .656-.108.656-.28v-2.187c0-.173-.295-.28-.656-.28h-2.28a6.2 6.2 0 0 0-.812-1.937l1.625-1.625c.255-.255.372-.534.25-.656l-1.53-1.53c-.122-.122-.4-.005-.656.25L59.02 62.97a6.2 6.2 0 0 0-1.937-.812v-2.28c0-.36-.108-.656-.28-.656h-2.187zm1.094 6.22a2.79 2.79 0 0 1 2.781 2.781 2.79 2.79 0 0 1-2.781 2.781 2.79 2.79 0 0 1-2.781-2.781 2.79 2.79 0 0 1 2.781-2.781"/><g fill="none"><rect width="37" height="37" x="36.894" y="42.72" stroke="url(#C)" stroke-linejoin="round" opacity=".4" rx="1.365"/><path stroke="url(#B)" stroke-width=".998" d="m60.32 51.686-4.926 5.71-5.037-5.678h2.537v-6h5v6z"/><path stroke="url(#A)" d="M54.832 59.688c-.012.054-.03.1-.03.188v2.28a.48.48 0 0 1-.375.469 5.7 5.7 0 0 0-1.78.75.48.48 0 0 1-.594-.062l-1.625-1.625c-.053-.053-.084-.066-.125-.094l-1.22 1.22c.027.04.04.072.094.125l1.625 1.625a.48.48 0 0 1 .063.594 5.7 5.7 0 0 0-.75 1.78.48.48 0 0 1-.469.375h-2.28c-.087 0-.134.02-.187.03v1.75c.054.012.1.03.188.03h2.28a.48.48 0 0 1 .469.375 5.7 5.7 0 0 0 .75 1.78.48.48 0 0 1-.062.594L49.176 73.5c-.053.053-.066.084-.094.125l1.22 1.22c.04-.027.072-.04.125-.094l1.625-1.625a.48.48 0 0 1 .594-.062 5.7 5.7 0 0 0 1.78.75.48.48 0 0 1 .375.469v2.28c0 .087.02.134.03.188h1.75c.012-.054.03-.1.03-.187v-2.28a.48.48 0 0 1 .375-.469 5.7 5.7 0 0 0 1.78-.75.48.48 0 0 1 .594.063l1.625 1.625c.053.053.084.066.125.094l1.22-1.22c-.027-.04-.04-.072-.094-.125l-1.625-1.625a.48.48 0 0 1-.062-.594 5.7 5.7 0 0 0 .75-1.78.48.48 0 0 1 .469-.375h2.28c.087 0 .134-.02.188-.03v-1.75c-.054-.012-.1-.03-.187-.03h-2.28a.48.48 0 0 1-.469-.375 5.7 5.7 0 0 0-.75-1.78.48.48 0 0 1 .063-.594l1.625-1.625c.053-.053.066-.084.094-.125l-1.22-1.22c-.04.027-.072.04-.125.094l-1.625 1.625a.48.48 0 0 1-.594.063 5.7 5.7 0 0 0-1.78-.75.48.48 0 0 1-.375-.469v-2.28c0-.087-.02-.134-.03-.187h-1.75zm.875 5.28c1.792 0 3.25 1.458 3.25 3.25s-1.458 3.25-3.25 3.25-3.25-1.458-3.25-3.25 1.458-3.25 3.25-3.25z"/></g></g><text xml:space="preserve" x="46.671" y="28.638" fill="#fff" font-family="Montserrat" font-size="21" transform="translate(29.488 1.872)scale(.54972)">Download as an</text><text xml:space="preserve" x="55.5" y="43" fill="#fff" font-family="Montserrat" font-size="21">AppImage</text></svg>